<svg width="16" height="16" viewBox="0 0 16 16" fill="none" xmlns="http://www.w3.org/2000/svg">
<path d="M7.20113 11.6093V5.49133H8.45513V11.6093H7.20113ZM7.82812 4.61733C7.57479 4.61733 7.38479 4.55399 7.25813 4.42733C7.13146 4.30066 7.06813 4.11699 7.06813 3.87633C7.06813 3.62299 7.13146 3.43933 7.25813 3.32533C7.38479 3.19866 7.57479 3.13533 7.82812 3.13533C8.03079 3.13533 8.20179 3.19866 8.34113 3.32533C8.49313 3.43933 8.56913 3.62299 8.56913 3.87633C8.56913 4.12966 8.49313 4.31966 8.34113 4.44633C8.20179 4.56033 8.03079 4.61733 7.82812 4.61733ZM7.82812 15.6563C6.75146 15.6563 5.73813 15.4537 4.78813 15.0483C3.83813 14.643 3.00213 14.0857 2.28013 13.3763C1.57079 12.6543 1.01346 11.8183 0.608125 10.8683C0.202792 9.91833 0.000125133 8.90499 0.000125133 7.82833C0.000125133 6.73899 0.202792 5.72566 0.608125 4.78833C1.01346 3.83833 1.57079 3.00866 2.28013 2.29933C3.00213 1.57733 3.83813 1.01366 4.78813 0.608327C5.73813 0.202994 6.75146 0.00032711 7.82812 0.00032711C8.91746 0.00032711 9.93079 0.202994 10.8681 0.608327C11.8181 1.01366 12.6478 1.57733 13.3571 2.29933C14.0791 3.00866 14.6428 3.83833 15.0481 4.78833C15.4535 5.72566 15.6561 6.73899 15.6561 7.82833C15.6561 8.90499 15.4535 9.91833 15.0481 10.8683C14.6428 11.8183 14.0791 12.6543 13.3571 13.3763C12.6478 14.0857 11.8181 14.643 10.8681 15.0483C9.93079 15.4537 8.91746 15.6563 7.82812 15.6563ZM7.82812 14.5923C8.76546 14.5923 9.63946 14.4213 10.4501 14.0793C11.2735 13.7247 11.9955 13.237 12.6161 12.6163C13.2368 11.9957 13.7181 11.28 14.0601 10.4693C14.4148 9.64599 14.5921 8.76566 14.5921 7.82833C14.5921 6.89099 14.4148 6.01699 14.0601 5.20633C13.7181 4.38299 13.2368 3.66099 12.6161 3.04033C11.9955 2.41966 11.2735 1.93833 10.4501 1.59633C9.63946 1.24166 8.76546 1.06433 7.82812 1.06433C6.89079 1.06433 6.01046 1.24166 5.18713 1.59633C4.37646 1.93833 3.66079 2.41966 3.04013 3.04033C2.41946 3.66099 1.93179 4.38299 1.57713 5.20633C1.23513 6.01699 1.06413 6.89099 1.06413 7.82833C1.06413 8.76566 1.23513 9.64599 1.57713 10.4693C1.93179 11.28 2.41946 11.9957 3.04013 12.6163C3.66079 13.237 4.37646 13.7247 5.18713 14.0793C6.01046 14.4213 6.89079 14.5923 7.82812 14.5923Z" fill="#6FBA41"/>
</svg>
