<svg width="152" height="24" viewBox="0 0 152 24" fill="none" xmlns="http://www.w3.org/2000/svg">
<g clip-path="url(#clip0_816_2135)">
<path d="M145.02 17.7595V6.01953H146.52V13.4095L146.53 13.3895V13.3595L148.14 11.4495L149.82 9.41953H151.32L151.31 9.43953H151.65L148.32 13.3895L152 17.7595H150.18L146.53 13.4295L146.52 13.4095V17.7595H145.02Z" fill="white"/>
<path fill-rule="evenodd" clip-rule="evenodd" d="M14.89 14.2C16.36 13.68 17.93 13.32 19.58 13.11C17.53 12.96 15.57 12.55 13.72 11.86C12.92 12.16 12.14 12.51 11.38 12.91C12.51 13.44 13.68 13.87 14.89 14.2ZM5.92 21.37C7.39 18.98 9.28 17.15 11.49 15.81C10.58 15.44 9.69 15.02 8.83 14.54C6.95 15.95 5.23 17.76 3.7 19.97L5.92 21.37ZM19.53 17.75L19.55 15.03H19.53V17.75ZM9.61 23.75C12.36 20 15.75 18.42 19.53 17.75C17.56 17.54 15.67 17.17 13.88 16.64C11.39 17.82 9.2 19.66 7.42 22.36L9.61 23.75ZM14.91 9.51C16.39 9.11 17.93 8.85 19.53 8.71C17.51 8.44 15.61 7.93 13.86 7.1C13.06 7.34 12.28 7.61 11.52 7.92C12.58 8.56 13.71 9.09 14.91 9.51ZM9.44 11.86C10.07 11.47 10.73 11.12 11.39 10.8C10.51 10.33 9.66 9.79 8.84 9.18C8.26 9.5 7.69 9.85 7.13 10.22C7.88 10.83 8.64 11.38 9.44 11.86ZM2.25 19.03L2.26 19.02L2.28 19.03C3.73 16.79 5.36 14.96 7.14 13.5C6.39 13 5.67 12.45 4.97 11.86C3.13 13.43 1.46 15.33 0 17.62L2.25 19.03Z" fill="#C70038"/>
<path fill-rule="evenodd" clip-rule="evenodd" d="M2.27953 4.69C6.60953 11.37 12.5295 14.42 19.5295 15V17.74C11.4195 16.88 4.69953 13.4 0.0195312 6.11L2.27953 4.69ZM5.92953 2.35C8.95953 7.28 13.7895 9.86 19.5895 10.6V13.11C13.2895 12.66 7.80953 9.7 3.70953 3.75L5.92953 2.35ZM9.58953 0C12.3395 3.75 15.7295 5.33 19.5095 6L19.5295 8.72C14.6395 8.07 10.4195 5.99 7.39953 1.39L9.58953 0Z" fill="#17388C"/>
<path fill-rule="evenodd" clip-rule="evenodd" d="M27.8094 10.7502H31.7694V5.99023H34.9694V17.7402H31.7694V13.0702H27.8094V17.7402H24.6094V5.99023H27.8094V10.7502Z" fill="white"/>
<path fill-rule="evenodd" clip-rule="evenodd" d="M67.9199 5.99023H71.3999V15.4702H76.5699V17.8102H71.3999H67.9199V5.99023Z" fill="white"/>
<path d="M45.4609 9.40965H48.3809V10.7696C48.8209 10.2096 49.2009 9.93965 49.6609 9.72965C50.0209 9.56965 50.6009 9.38965 51.2409 9.38965C52.1109 9.38965 52.8909 9.73965 53.2409 10.1296C53.7209 10.6696 53.9709 11.3496 53.9709 12.4496V17.7696H50.9609V13.1696C50.9609 12.6496 50.8209 11.8396 50.6309 11.6196C50.4409 11.3996 50.1709 11.2896 49.8309 11.2896C49.4509 11.2896 49.1409 11.4396 48.9109 11.7296C48.6709 12.0196 48.6009 12.5296 48.6009 13.2896V17.7696H45.4609V9.40965Z" fill="white"/>
<path d="M96.3596 9.40965H99.1996V10.7596C99.6196 10.2096 99.9996 9.92965 100.45 9.72965C100.8 9.56965 101.36 9.38965 101.98 9.38965C102.82 9.38965 103.58 9.72965 103.92 10.1296C104.38 10.6696 104.63 11.3096 104.63 12.4096V17.7296H101.71V13.1496C101.71 12.6296 101.58 11.8296 101.39 11.6096C101.2 11.3896 100.95 11.2796 100.61 11.2796C100.24 11.2796 99.9396 11.4296 99.7096 11.7196C99.4796 12.0096 99.1696 12.5196 99.1696 13.2796V17.7296H96.3496V9.40965H96.3596Z" fill="white"/>
<path d="M82.4604 12.8799C82.4004 12.2799 82.2504 11.8599 82.0104 11.5999C81.7604 11.3399 81.4404 11.2099 81.0404 11.2099C80.5804 11.2099 80.2104 11.4099 79.9304 11.7899C79.7504 12.0299 79.6404 12.3899 79.6004 12.8699H82.4604V12.8799ZM85.4104 14.3599H79.6004C79.6504 14.8599 79.7804 15.2199 79.9804 15.4699C80.2604 15.8199 80.6304 15.9899 81.0804 15.9899C81.3604 15.9899 81.6404 15.9199 81.8904 15.7599C82.0504 15.6599 82.2204 15.4999 82.4004 15.2499L82.4804 14.9799L85.4104 14.9899C85.3904 15.1399 85.3404 15.4099 85.2504 15.5499C84.8104 16.3599 84.3004 16.9199 83.6804 17.2699C83.0604 17.6199 82.1804 17.7899 81.0204 17.7899C80.0204 17.7899 79.2304 17.6399 78.6504 17.3399C78.0804 17.0399 77.6004 16.5599 77.2204 15.9099C76.8404 15.2599 76.6504 14.4899 76.6504 13.5999C76.6504 12.3399 77.0304 11.3299 77.7904 10.5499C78.5504 9.76988 79.5904 9.37988 80.9304 9.37988C82.0104 9.37988 82.8704 9.55988 83.4904 9.89988C84.1204 10.2499 84.6004 10.7499 84.9204 11.4099C85.2504 12.0699 85.4104 12.9299 85.4104 13.9899V14.3599Z" fill="white"/>
<path d="M122.85 16.2704C123.64 16.2704 124.22 16.1004 124.61 15.7704C125 15.4404 125.19 14.9404 125.19 14.2604C125.19 13.6204 124.99 13.1404 124.58 12.8404C124.17 12.5304 123.55 12.3804 122.7 12.3804H120.13V16.2704H122.85ZM122.62 10.8104C123.42 10.8104 124.02 10.6604 124.42 10.3504C124.82 10.0404 125.02 9.58043 125.02 8.97043C125.02 8.35043 124.84 7.90043 124.48 7.61043C124.12 7.32043 123.55 7.18043 122.77 7.18043H120.13V10.8104H122.62ZM124.86 11.3304C125.94 11.5904 126.88 13.1304 126.88 14.1604C126.88 15.2704 126.54 16.1404 125.85 16.7504C125.16 17.3704 124.41 17.6704 123.16 17.6704H118.48V5.94043H122.91C124.11 5.94043 125.01 6.19043 125.63 6.68043C126.25 7.17043 126.55 7.91043 126.55 8.88043C126.55 9.45043 126.42 9.93043 126.15 10.3204C125.87 10.7104 125.45 11.0504 124.86 11.3304Z" fill="white"/>
<path d="M137.809 10.6204C138.559 9.81039 139.399 9.40039 140.339 9.40039C142.249 9.40039 143.199 10.4004 143.199 12.4104V17.7504H141.689V12.4704C141.689 11.8004 141.559 11.3404 141.319 11.0504C141.069 10.7604 140.629 10.4604 140.059 10.4604C139.289 10.4604 138.529 10.9004 137.759 11.7704L137.799 17.7604H136.289V9.58039H137.799V10.6204H137.809Z" fill="white"/>
<path d="M133.179 13.6196C130.719 13.6196 129.499 14.2396 129.499 15.4896C129.499 15.8596 129.629 16.1796 129.869 16.4396C130.119 16.6996 130.489 16.8396 130.989 16.8396C131.709 16.8396 132.259 16.5996 132.629 16.1096C132.999 15.6196 133.179 15.0696 133.179 14.4496V13.6196ZM133.339 17.6796C133.349 17.4596 133.329 16.2896 133.329 16.2896C132.859 17.5196 131.699 18.0196 130.389 18.0196C129.599 18.0196 128.969 17.7796 128.499 17.2896C128.019 16.8096 127.779 16.1996 127.779 15.4596C127.779 13.5596 129.369 12.6096 132.559 12.6096C132.689 12.6096 132.849 12.6096 133.069 12.6196V11.9996C133.069 11.1396 132.609 10.3596 131.499 10.3596C130.419 10.3596 129.949 10.9196 129.799 11.7796L128.109 11.7596C128.189 11.0696 128.619 10.3896 129.219 9.93965C129.809 9.48965 130.509 9.38965 131.629 9.38965C132.239 9.38965 132.739 9.44965 133.119 9.54965C133.499 9.65965 133.829 9.83965 134.099 10.0896C134.369 10.3396 134.549 10.6196 134.649 10.9196C134.749 11.2196 134.799 11.7196 134.799 12.4296V17.6796H133.339Z" fill="white"/>
<path fill-rule="evenodd" clip-rule="evenodd" d="M40.1801 11.1096C41.0901 11.1096 41.8901 12.0396 41.8901 13.5896C41.8901 15.1396 41.1501 16.0396 40.2401 16.0396C39.3301 16.0396 38.5901 15.1396 38.5901 13.5896C38.5901 12.0296 39.2701 11.1096 40.1801 11.1096ZM40.2201 9.38965C42.8201 9.38965 44.2201 11.2896 44.2201 13.5996C44.2201 15.9096 42.8201 17.7696 40.2201 17.7696C37.6201 17.7696 36.0801 15.8896 36.0801 13.5796C36.0701 11.2696 37.6201 9.38965 40.2201 9.38965Z" fill="white"/>
<path fill-rule="evenodd" clip-rule="evenodd" d="M90.8598 11.1096C91.7698 11.1096 92.5698 12.0396 92.5698 13.5896C92.5698 15.1396 91.8298 16.0396 90.9198 16.0396C90.0098 16.0396 89.2698 15.1396 89.2698 13.5896C89.2698 12.0296 89.9498 11.1096 90.8598 11.1096ZM90.8998 9.38965C93.4998 9.38965 94.8998 11.2896 94.8998 13.5996C94.8998 15.9096 93.4998 17.7696 90.8998 17.7696C88.2998 17.7696 86.7598 15.8896 86.7598 13.5796C86.7498 11.2696 88.2998 9.38965 90.8998 9.38965Z" fill="white"/>
<path d="M111.23 14.5399C111.31 14.2999 111.34 14.0099 111.34 13.6799C111.34 13.6699 111.34 13.6599 111.34 13.6499C111.34 13.6499 111.34 13.6399 111.34 13.6299C111.34 12.2999 110.66 11.2199 109.81 11.2199C108.97 11.2199 108.28 12.2999 108.28 13.6299C108.28 14.9599 108.96 16.0399 109.81 16.0399C110.46 16.0399 111 15.4199 111.23 14.5399ZM111.55 9.57988H114.48V17.6399L114.49 18.0199C114.49 18.5599 114.38 19.0699 114.16 19.5499C113.94 20.0399 113.65 20.4299 113.29 20.7299C112.93 21.0299 112.47 21.2499 111.91 21.3799C111.35 21.5099 110.72 21.5799 110 21.5799C108.36 21.5799 107.23 21.3199 106.62 20.8099C106.01 20.2999 105.7 19.6099 105.7 18.7499C105.7 18.6399 105.69 18.7899 105.7 18.6199H108.73C108.81 18.9099 108.95 19.1799 109.11 19.2899C109.34 19.4499 109.63 19.5399 109.98 19.5399C110.43 19.5399 110.77 19.4099 110.99 19.1599C111.21 18.9099 111.32 18.4699 111.32 17.8399V16.5499C111.01 16.9299 110.71 17.2099 110.4 17.3799C109.92 17.6499 109.4 17.7799 108.84 17.7799C107.75 17.7799 106.87 17.2799 106.19 16.2799C105.71 15.5699 105.48 14.6399 105.48 13.4699C105.48 12.1399 105.79 11.1299 106.4 10.4299C107.02 9.72988 107.82 9.37988 108.82 9.37988C109.46 9.37988 109.98 9.48988 110.39 9.71988C110.8 9.94988 111.19 10.3199 111.55 10.8399V9.57988Z" fill="white"/>
<path d="M60.6506 14.5399C60.7306 14.2999 60.7606 14.0099 60.7606 13.6699C60.7606 13.6599 60.7606 13.6499 60.7606 13.6399C60.7606 13.6299 60.7606 13.6299 60.7606 13.6199C60.7606 12.2899 60.0806 11.2099 59.2306 11.2099C58.3906 11.2099 57.7006 12.2899 57.7006 13.6199C57.7006 14.9499 58.3806 16.0299 59.2306 16.0299C59.8706 16.0399 60.4206 15.4199 60.6506 14.5399ZM60.9606 9.57988H63.8906V17.6399L63.9006 18.0199C63.9006 18.5599 63.7906 19.0699 63.5706 19.5499C63.3506 20.0399 63.0606 20.4299 62.7006 20.7299C62.3406 21.0299 61.8806 21.2499 61.3206 21.3799C60.7606 21.5099 60.1306 21.5799 59.4106 21.5799C57.7706 21.5799 56.6406 21.3199 56.0306 20.8099C55.4206 20.2999 55.1106 19.6099 55.1106 18.7499C55.1106 18.6399 55.1006 18.7899 55.1106 18.6199H58.1406C58.2206 18.9099 58.3606 19.1799 58.5206 19.2899C58.7506 19.4499 59.0406 19.5399 59.3906 19.5399C59.8406 19.5399 60.1806 19.4099 60.4006 19.1599C60.6206 18.9099 60.7306 18.4699 60.7306 17.8399V16.5499C60.4206 16.9299 60.1206 17.2099 59.8106 17.3799C59.3306 17.6499 58.8106 17.7799 58.2506 17.7799C57.1606 17.7799 56.2806 17.2799 55.6006 16.2799C55.1206 15.5699 54.8906 14.6399 54.8906 13.4699C54.8906 12.1399 55.2006 11.1299 55.8106 10.4299C56.4306 9.72988 57.2306 9.37988 58.2306 9.37988C58.8706 9.37988 59.3906 9.48988 59.8006 9.71988C60.2106 9.94988 60.6006 10.3199 60.9606 10.8399V9.57988Z" fill="white"/>
</g>
<defs>
<clipPath id="clip0_816_2135">
<rect width="152" height="23.75" fill="white"/>
</clipPath>
</defs>
</svg>
